<svg width="25" height="24" viewBox="0 0 25 24" fill="none" xmlns="http://www.w3.org/2000/svg">
<path d="M5.67505 3.25003C5.67472 3.91307 5.41101 4.54882 4.94193 5.01743C4.47286 5.48604 3.83684 5.74911 3.1738 5.74878C2.51076 5.74845 1.875 5.48474 1.4064 5.01566C0.937792 4.54659 0.674718 3.91057 0.675049 3.24753C0.675381 2.58449 0.939091 1.94874 1.40817 1.48013C1.87724 1.01152 2.51326 0.748448 3.1763 0.74878C3.83934 0.749111 4.47509 1.01282 4.9437 1.4819C5.41231 1.95097 5.67538 2.58699 5.67505 3.25003ZM5.75005 7.60003H0.750049V23.25H5.75005V7.60003ZM13.65 7.60003H8.67505V23.25H13.6V15.0375C13.6 10.4625 19.5625 10.0375 19.5625 15.0375V23.25H24.5V13.3375C24.5 5.62503 15.675 5.91253 13.6 9.70003L13.65 7.60003Z" fill="black"/>
</svg>
