<svg width="30" height="26" viewBox="0 0 30 26" fill="none" xmlns="http://www.w3.org/2000/svg">
<path d="M30 3.67886C28.8958 4.18077 27.7055 4.5106 26.4723 4.66834C27.7342 3.90831 28.7094 2.70372 29.1683 1.25534C27.978 1.97236 26.6587 2.47427 25.2677 2.76108C24.1348 1.52781 22.543 0.810791 20.7361 0.810791C17.3662 0.810791 14.6128 3.56414 14.6128 6.9628C14.6128 7.45037 14.6702 7.9236 14.7706 8.36815C9.66539 8.11003 5.1195 5.65783 2.09369 1.94368C1.5631 2.84712 1.26195 3.90831 1.26195 5.02685C1.26195 7.16356 2.33748 9.05649 4.00096 10.132C2.98279 10.132 2.03633 9.84521 1.20459 9.415V9.45802C1.20459 12.4408 3.32696 14.936 6.13767 15.4953C5.23527 15.7423 4.2879 15.7766 3.36998 15.5957C3.75947 16.8182 4.52228 17.8879 5.55117 18.6544C6.58006 19.4209 7.8233 19.8457 9.10612 19.8691C6.93159 21.5906 4.23613 22.5211 1.46272 22.5077C0.975143 22.5077 0.487572 22.4791 0 22.4217C2.72467 24.1712 5.96558 25.1894 9.43595 25.1894C20.7361 25.1894 26.9455 15.8108 26.9455 7.67982C26.9455 7.40735 26.9455 7.14922 26.9312 6.87676C28.1358 6.01634 29.1683 4.92647 30 3.67886Z" fill="black"/>
</svg>
